<svg width="313" height="110" viewBox="0 0 313 110" fill="none" xmlns="http://www.w3.org/2000/svg">
<path d="M231.112 0.110352C239.422 2.89494 245.12 8.37843 248.247 17.4605C240.493 15.2328 233.082 13.6049 226.999 9.02103C223.615 6.49348 223.657 3.19482 226.271 0.110352H231.112Z" fill="white"/>
<path d="M280.547 56.0596C271.337 54.7744 262.126 53.6177 252.787 55.2884L252.873 55.3741C252.873 44.6213 253.772 33.7829 250.431 23.2443C249.917 21.6164 249.403 19.9456 248.76 17.9321C262.426 20.4169 275.664 24.1439 289.672 25.0864C284.274 34.8967 283.246 45.778 280.419 56.1024L280.504 56.0596H280.547Z" fill="white"/>
<path d="M112.402 40.2095C112.402 41.6232 112.402 43.0797 112.402 44.4934C112.402 57.4311 112.402 70.3258 112.402 83.2635C112.402 84.6343 112.787 86.4764 110.517 86.5193C108.246 86.5193 108.118 84.8914 108.118 83.1778C108.118 65.1851 108.118 47.1923 108.118 29.1996C108.118 27.8716 107.946 26.3722 109.617 25.901C111.502 25.3869 112.23 26.8435 112.83 28.2143C116.6 36.9965 120.284 45.8215 124.097 54.5608C127.695 62.8717 131.722 70.9684 137.463 78.0798C139.648 80.7788 142.09 83.2206 145.131 85.0627C147.102 86.2622 147.573 85.7053 147.659 83.6062C148.087 72.425 148.687 61.2438 149.158 50.0626C149.544 40.4665 149.844 30.9132 150.272 21.3171C150.358 19.732 149.801 17.3759 152.585 17.5901C155.113 17.7614 154.727 19.9034 154.642 21.617C153.699 43.7223 152.714 65.7848 151.771 87.8901C151.643 90.7176 150.7 91.66 147.744 90.7176C142.389 89.0897 138.234 85.8767 134.764 81.7212C127.952 73.5388 123.583 63.9855 119.427 54.3466C117.371 49.6342 115.443 44.879 113.473 40.1238C113.13 40.1238 112.787 40.1666 112.487 40.2095H112.402Z" fill="white"/>
<path d="M280.548 56.0586L280.463 56.1015C286.118 57.6437 291.773 59.3144 296.785 62.4846C303.725 66.8971 308.309 72.7661 308.309 81.3341C308.309 87.9314 304.068 91.2729 297.47 90.0306C284.533 87.6315 277.635 78.421 279.135 65.4834C279.52 62.3132 280.077 59.1859 280.548 56.0158V56.0586Z" fill="white"/>
<path d="M176.276 86.476C165.737 86.4332 158.283 80.4356 156.441 71.782C154.941 64.7134 155.67 57.7305 158.112 51.0047C160.425 44.7501 165.052 40.7231 171.563 38.9239C176.276 37.6387 181.673 39.3523 184.415 43.3364C187.5 47.7917 188.999 52.8468 189.513 58.2446C189.727 60.815 188.656 62.143 185.915 62.4429C178.332 63.1712 170.792 64.2422 163.21 64.8419C160.639 65.0561 160.125 65.9129 160.254 68.2691C160.639 74.5666 164.238 79.536 170.064 81.5066C175.933 83.4772 180.645 81.935 184.886 76.7086C185.829 75.5519 186.557 74.0097 188.314 75.3377C190.156 76.7086 189.085 78.1651 188.142 79.4932C184.801 84.1199 180.217 86.476 176.276 86.5617V86.476ZM174.005 42.908C174.005 42.908 173.02 43.0365 172.206 43.2078C165.823 44.5787 160.082 52.5041 160.296 59.4441C160.382 61.6718 161.796 60.8578 162.781 60.7293C167.408 60.2581 172.077 59.744 176.704 59.1871C186.3 58.0304 186.6 57.4735 182.573 48.3915C181.031 44.9214 178.589 42.8223 174.005 42.8651V42.908Z" fill="white"/>
<path d="M200.565 63.5989C200.565 53.7886 200.479 46.206 200.608 38.6233C200.65 36.1386 200.094 35.1961 197.352 35.239C191.868 35.3675 186.385 35.0676 180.901 34.9819C179.402 34.9819 177.603 34.9819 177.56 33.0541C177.56 31.0407 179.102 30.5694 180.944 30.6123C186.556 30.8265 192.168 30.9122 197.78 31.2549C199.879 31.3834 200.65 30.8693 200.393 28.6845C199.794 23.2438 199.408 17.8032 198.98 12.4054C198.851 10.7346 198.38 8.59262 200.865 8.33558C203.264 8.07855 203.049 10.2634 203.221 11.7199C203.735 17.2891 204.292 22.8583 204.42 28.4274C204.463 30.955 205.234 31.5119 207.59 31.5119C213.331 31.5119 219.114 31.8118 224.855 32.026C226.269 32.0688 228.068 31.7261 227.939 34.0395C227.811 36.0529 226.311 36.2243 224.769 36.1814C219.157 36.0529 213.502 36.0958 207.933 35.7102C205.277 35.5389 204.549 36.1814 204.635 38.8375C204.934 54.5169 204.463 70.2391 205.963 85.9184C206.134 87.7177 205.706 89.3456 203.692 89.3885C201.764 89.4313 201.593 87.632 201.507 86.1755C201.165 77.9502 200.265 69.725 200.565 63.6846V63.5989Z" fill="white"/>
<path d="M5.85957 60.6868C12.7568 55.2462 19.7397 55.1605 24.4092 60.1728C29.5928 65.7848 29.5071 76.5804 24.195 82.1924C19.1399 87.5474 12.2427 87.4617 5.34549 81.9354C4.7029 83.3062 5.98809 85.8766 2.73227 85.7053C0.847316 85.5767 0.247559 85.1912 0.247559 83.2206C0.333238 70.9684 0.418918 58.7162 0.247559 46.464C0.247559 43.9365 1.44707 44.1078 3.2035 44.0222C5.25981 43.8936 6.03093 44.4506 5.94525 46.6354C5.77389 51.2192 5.90241 55.8459 5.90241 60.6868H5.85957ZM5.85957 71.611C5.85957 72.2536 5.85957 72.939 5.85957 73.5816C5.98809 77.9941 8.60132 81.1642 12.5426 81.7212C16.8694 82.3209 20.5108 80.1361 21.8388 75.9806C22.867 72.8533 22.867 69.726 21.8388 66.5987C20.5108 62.5718 17.0408 60.387 12.9281 60.901C8.30144 61.4579 5.85957 65.2279 5.85957 71.6538V71.611Z" fill="white"/>
<path d="M252.79 55.288C252.405 65.0554 249.363 73.5377 240.495 78.9355C238.91 79.9208 237.239 80.8633 235.483 81.3774C231.927 82.4484 228.5 82.1914 226.187 78.807C224.002 75.594 225.287 72.5096 227.557 70.1105C234.498 62.7849 242.294 56.6588 252.833 55.3736L252.747 55.288H252.79Z" fill="white"/>
<path d="M12.798 93.7139C14.3831 92.4716 15.7968 92.9 17.082 92.9C102.462 92.9 187.841 92.9 273.178 92.9C274.463 92.9 276.82 92.1288 276.863 93.7568C276.863 95.556 274.506 94.7421 273.264 94.7421C187.884 94.7849 102.505 94.7421 17.1677 94.7421C15.8397 94.7421 14.2974 95.1705 12.8409 93.6711L12.798 93.7139Z" fill="white"/>
<path d="M69.4753 82.2785C66.9478 84.7632 64.5059 85.7914 61.807 86.1341C57.523 86.691 53.3676 84.3776 52.0395 80.7363C50.6687 76.8807 52.1681 72.6824 55.8094 70.2834C58.6797 68.3984 62.0212 68.0128 65.3199 67.3703C66.5622 67.1132 68.6614 68.3984 68.8756 66.1279C69.0898 63.686 67.8903 61.6726 65.3627 60.9443C62.878 60.216 60.3505 60.6444 57.8229 61.2013C56.5806 61.4584 55.0383 63.6432 54.1815 60.6872C53.4533 58.2454 55.2525 58.1169 56.7091 57.6028C59.9221 56.4889 63.1779 56.1034 66.5622 56.8317C70.7605 57.6885 73.8022 60.3445 74.1449 64.5C74.659 71.0116 74.659 77.5233 74.9588 84.0778C75.0017 85.363 74.3591 85.5343 73.2452 85.6628C71.0176 85.9627 69.561 85.363 69.4753 82.2785ZM69.2611 74.4388C68.8327 73.4107 70.2893 71.3544 67.7189 71.2258C64.7201 71.0973 61.807 71.4829 59.2795 73.1536C57.009 74.653 56.7948 76.9235 57.4802 79.194C58.2085 81.6359 60.3505 82.1928 62.621 82.0215C66.7336 81.7644 69.1755 78.9798 69.2611 74.396V74.4388Z" fill="white"/>
<path d="M80.6987 71.8235C80.5701 60.9851 89.9092 54.2592 101.69 57.1723C103.018 57.515 104.046 57.9434 103.404 59.9141C102.847 61.6277 102.204 61.8419 100.533 61.4992C93.722 60.0426 89.2666 61.7134 87.296 66.4686C85.6252 70.5383 85.7538 74.5653 88.5383 78.1638C91.3229 81.7624 95.2213 82.1479 99.4196 81.4625C100.833 81.2483 102.633 79.3633 103.318 82.5763C103.961 85.5323 101.604 85.2324 100.234 85.5323C89.0096 87.9741 80.7415 82.1051 80.6558 71.7807L80.6987 71.8235Z" fill="white"/>
<path d="M39.7882 61.1124C41.716 58.9276 43.2582 57.0855 45.8286 56.7427C47.1994 56.5714 48.9559 55.6289 49.1701 58.0279C49.2986 59.6987 49.984 61.6693 46.7282 61.755C42.5728 61.8407 40.5593 64.7109 40.3451 68.5665C40.0452 73.3217 40.0452 78.1198 40.1737 82.875C40.2166 85.274 39.2312 85.6596 37.0893 85.7024C34.7759 85.7453 34.5189 84.7171 34.5189 82.8322C34.5189 75.2495 34.3904 67.7097 34.3475 60.1271C34.3475 58.7991 33.5336 57.0855 36.0611 56.9569C38.0746 56.8713 39.5311 57.0855 39.3598 59.613C39.3598 59.9557 39.574 60.3413 39.7882 61.1124Z" fill="white"/>
<path d="M289.889 24.873C293.831 19.1324 297.986 14.7628 303.555 11.9782C304.455 11.507 305.569 11.3356 306.64 11.2499C308.653 11.0786 310.838 10.95 311.952 13.0492C313.066 15.234 311.566 16.9048 310.238 18.3613C304.969 24.0162 298.157 25.1728 289.889 24.873Z" fill="white"/>
<path d="M211.232 105.453C212.089 103.097 212.731 101.426 213.245 99.6695C213.502 98.8555 213.674 98.0415 214.616 97.9559C215.644 97.8702 215.816 98.8127 216.073 99.5409C216.672 101.255 217.229 102.925 217.872 104.939C219.243 103.054 219.329 101.04 219.928 99.1982C220.185 98.3843 220.785 97.6988 221.685 97.9987C222.37 98.2557 222.242 99.1125 222.07 99.7551C221.213 102.411 220.357 105.024 219.457 107.638C219.243 108.237 218.943 108.88 218.086 108.837C217.315 108.794 216.887 108.323 216.672 107.638C216.073 105.753 215.473 103.868 214.659 101.383C213.802 103.868 213.16 105.796 212.474 107.68C212.26 108.366 211.832 108.794 211.06 108.88C210.204 108.923 209.904 108.237 209.732 107.638C208.876 104.982 208.105 102.326 207.248 99.7123C207.034 99.0269 206.862 98.2986 207.633 98.0415C208.533 97.7417 209.133 98.2557 209.39 99.1554C209.904 101.04 210.461 102.925 211.232 105.453Z" fill="white"/>
<path d="M273.221 103.396C273.221 103.011 273.092 102.54 273.221 102.197C273.864 100.869 271.507 98.2127 274.935 98.1698C278.233 98.127 282.431 96.4991 282.56 102.282C282.56 103.739 282.646 105.196 282.56 106.652C282.517 107.466 282.988 108.751 281.575 108.794C279.904 108.794 280.29 107.423 280.247 106.438C280.204 105.11 280.204 103.782 280.204 102.454C280.204 100.954 279.69 99.7549 277.976 99.7978C276.391 99.7978 275.62 100.997 275.491 102.454C275.363 104.039 275.449 105.624 275.406 107.252C275.406 108.023 275.491 108.965 274.292 108.88C273.478 108.837 273.264 108.152 273.221 107.423C273.221 106.095 273.221 104.767 273.221 103.439V103.396Z" fill="white"/>
<path d="M261.057 103.138C261.057 102.881 260.971 102.581 261.057 102.324C261.699 100.953 259.343 98.2116 262.684 98.1259C269.496 97.9117 270.481 98.4258 270.438 102.538C270.438 104.595 271.638 108.45 269.582 108.45C266.669 108.45 268.639 104.895 268.211 102.924C267.911 101.425 267.911 99.7538 265.983 99.7538C264.013 99.7538 263.327 101.253 263.327 103.052C263.327 104.38 263.327 105.709 263.327 107.037C263.327 107.765 263.541 108.793 262.299 108.793C261.228 108.793 261.099 107.936 261.057 107.122C261.057 105.794 261.057 104.466 261.057 103.138Z" fill="white"/>
<path d="M293.656 107.766C291.471 109.608 289.115 109.394 286.93 108.066C284.188 106.352 284.36 103.525 285.217 100.911C285.945 98.7266 287.744 97.5271 290.186 97.7413C293.013 97.9555 294.042 99.9689 294.256 102.368C294.427 104.51 292.585 103.782 291.386 104.039C290.015 104.339 287.401 103.011 287.444 104.981C287.444 107.509 290.057 107.423 292.114 107.037C292.714 106.909 293.142 107.037 293.656 107.766ZM292.585 102.282C291.386 100.097 290.657 98.7266 288.601 99.6262C287.873 99.9689 286.973 100.783 287.359 101.383C288.515 103.182 290.357 101.982 292.585 102.282Z" fill="white"/>
<path d="M229.739 107.212C230.425 107.512 231.71 105.97 231.838 107.726C231.924 109.054 230.596 108.797 229.739 108.883C227.383 109.097 225.198 108.797 223.913 106.441C222.671 104.127 222.842 101.771 224.427 99.7149C226.226 97.4444 228.54 96.8018 231.024 98.6439C232.395 99.672 233.038 101.214 232.652 102.842C232.224 104.813 230.467 103.613 229.311 103.956C228.068 104.342 225.755 103.099 225.712 104.898C225.669 106.783 227.769 107.34 229.696 107.169L229.739 107.212ZM225.755 102.157C227.297 101.557 229.268 103.485 230.296 101.3C230.639 100.572 229.782 99.8006 229.011 99.5435C227.083 98.9438 226.183 100.1 225.755 102.157Z" fill="white"/>
<path d="M253.903 97.6981C256.944 97.7409 259.301 100.397 259.129 103.567C258.958 106.823 256.602 109.051 253.389 108.879C249.876 108.708 248.548 106.48 248.505 103.31C248.505 99.9258 250.775 97.6124 253.903 97.6981ZM256.859 102.839C256.387 101.297 255.873 99.2403 253.517 99.4545C251.29 99.6687 250.561 101.597 250.647 103.524C250.775 105.409 251.461 107.423 253.903 107.166C256.173 106.951 256.645 105.024 256.859 102.796V102.839Z" fill="white"/>
<path d="M244.476 108.882C241.992 109.139 240.278 108.11 239.378 106.183C238.393 104.041 238.479 101.684 240.021 99.7566C241.477 97.9574 243.534 97.4433 245.804 97.7432C246.49 97.8289 247.175 98.2144 247.132 98.9855C247.09 99.8852 246.361 99.8423 245.633 99.7138C242.763 99.2426 241.135 100.656 241.092 103.355C241.092 106.011 242.634 107.511 245.504 107.168C246.104 107.082 247.047 106.611 247.004 107.682C246.918 109.653 245.247 108.667 244.433 108.924L244.476 108.882Z" fill="white"/>
<path d="M301.367 97.6968C302.438 97.7396 303.938 97.6111 303.98 98.8535C304.023 100.224 302.695 99.5389 301.838 99.5389C299.311 99.5389 297.811 100.867 297.897 103.437C297.983 106.008 299.439 107.25 302.01 107.164C302.738 107.164 303.809 106.479 303.938 107.678C304.066 109.049 302.738 108.792 301.881 108.878C298.326 109.221 295.798 107.25 295.541 103.866C295.284 100.524 297.983 97.6968 301.367 97.654V97.6968Z" fill="white"/>
<path d="M308.737 95.5587C308.865 97.1866 310.407 97.5722 311.393 98.4718C312.378 99.3715 310.579 99.4571 309.936 99.9284C308.437 100.999 308.822 105.84 310.579 107.083C311.179 107.511 311.735 107.768 311.436 108.411C311.307 108.711 310.536 108.753 310.022 108.882C309.765 108.925 309.508 108.882 309.208 108.882C307.409 108.582 306.466 106.997 306.895 105.755C308.008 102.456 303.51 98.8574 307.623 95.9014C307.837 95.7729 308.137 95.7301 308.737 95.5587Z" fill="white"/>
</svg>
